<?xml version="1.0" encoding="UTF-8"?>
<svg version="1.1" viewBox="0 0 1600 1600" width="100" height="100" xmlns="http://www.w3.org/2000/svg">
<path transform="translate(464)" d="m0 0h11l7 11 8 8 8 10 11 12 11 14 12 14 7 8 9 9 11 9 10 9 11 12 13 17 9 11 26 36 10 13 9 10 9 11 9 10 7 7 7 8 84 84 9 11 15 16 3 3v2h2l5 5 6 5 4-1 8-10 9-11 13-15 8-10 11-12 7-8 14-15 8-7 15-15 7-8 8-8 7-8 23-23 7-8 11-12 9-11 11-12 11-14 10-13 11-15 14-19 9-10 16-12 18-18 10-13 9-12 13-18 6-8 5-5 8-10 2-4h10v105l-4 4-9 6-1 5-1 48-1 71-2 47-1 14-2 9-4 43-3 28-3 45-1 21-1 50 76-2 28-2 12-3 11-4 22-3 37-2 31-1 50-1 30-1 25-2 21-4 21-2 37-4 18-1 33-1h46v12l-13 8-22 18-14 12-11 9-9 7-22 18-14 13-8 7-9 9-8 7-12 12-8 7-15 14-14 11-8 7-7 12-6 5-10 4-16 12-16 13-3 1v2l-11 9-9 9-11 9-15 13-11 9-12 11-8 7-17 14-8 7-10 10-8 7-9 8 2 5 9 10 12 12 11 9 13 10 18 12 8 7 11 9 16 15 11 9 14 12 14 11 14 12 11 9 13 12 8 9 8 10 11 9 12 11 11 9 7 7 8 7 13 12 11 9 18 12 17 12 10 9 8 7 7 6v2l4 2 14 13 8 7 16 16 6 7v3h-13l-51-3h-11l-10-4-13-1-8-1h-12l-83-4-10-1-3-2-20-1-4 2-6-2-32-2-1 1h-7l-5-3-4-1-14-1h-12l-29-2-26-1h-103l-5-5-6-8-5-2h-5v7l1 4 1 57 3 68 3 12 1 11 1 23 3 12 3 69 1 34 1 64 2 21 7 12 3 4 2 10 1 19v85h-6l-5-5-11-14-11-16-13-16-9-10-9-11-7-7-7-8-7-7v-2l-3-1-7-8-7-7-7-8-12-14-11-20-12-14-16-17-33-33-7-8-11-11-7-8-10-11-9-11-13-16-11-14-9-11-12-14-9-9-7-8-18-18-9-11-7-6-5 1-6 4-9 9h-2l-2 4-15 15-7 8-18 22-13 18-9 12-9 10-12 13-1 2h-2l-2 4-22 22-7 8-8 8-7 8-14 14-7 6-7 8-7 7-8 16-11 14-12 14-12 13-14 15-4 5h-2l-2 4-11 13-11 14-11 13-11 14-14 17-10 13-6 6h-10l1-16 3-27 3-18 3-35 2-9 3-38 4-95 3-24 2-45v-25l4-4 1-5 1-19 2-101v-49l-9 1-4 6-5 4-4 1-61 1-104 3-18 1-6 2-1 2h-6l-7-1-4 1-4-1-11 1-12 1h-22l-6 2-24 2-90 6-30 3-65 4h-2l1-4 3-3h2v-2l8-7 12-13 8-7 6-6h2v-2l8-7 13-12 8-7 12-10 15-10 13-9 22-18 10-9 11-9 13-11 14-11 24-22 9-12 9-10 11-9 10-9 11-9 9-8 8-7 12-11 8-7 10-9 10-8 17-10 22-18 11-11 7-6 5-6-1-4-8-7-20-20-8-7-14-14-8-7-9-8-8-7-11-9-13-11-11-9-15-13-8-7-10-9-13-12-15-14-11-10-14-11-16-12-13-10-10-9-8-7-10-10-8-7-13-13-8-7-15-14-11-9-12-11-11-9-13-10-15-11-14-9v-9l11-1h26l40 1 33 2 55 6 14 3 33 2 28 1 75 2 47 2 10 2 7 5 11 2 45 3 22 1h39l-1-25-1-85-1-31-1-17-5-9v-30l-2-40-3-27-3-57-2-47-3-28-3-22-2-23-3-11-3-28v-13zm77 167v15l1 14 1 83 1 19 2 7 4 3v84l6 7 1 23 1 69 1 4 40 1h57l21-1 7-3 8-7 16-15 7-8 8-7 31-31 4-8-10-13-9-11-11-13-13-17-12-14-9-11-12-14-12-13-7-8-9-9-7-8-10-10-7-8-11-12-9-12-10-14-11-14-12-14-8-8-7-8-12-12-8-6zm514 4-10 6-14 17-12 16-12 17-11 13-18 22-12 14-8 7-9 7-7 8-11 10-9 12-8 10-12 17-11 13-11 12-8 8-9 11-16 17-5 7 6 9 10 10 7 8 12 13 8 8 8 7 11 11 13 10 10 4 6 1h91l13-1 3-1 2-36 4-29 3-43 4-26 1-15 2-110 2-49v-15zm-255 290-6 4-10 10-8 7-16 16-7 8-10 10-7 8-22 22-7 6v2l-5 2-3 1-19 1h-121v88l-1 44-2 13-7 9-17 16-5 5v2l-4 2-62 62 2 5 17 16 7 7 11 9 10 8 11 7 13 11 8 7 14 13 4 8 1 5v145h148l8 3 8 7 9 10 62 62 6 4 3-1 5-5 14-15 8-7 4-4v-2l4-2 7-8 13-13 8-7v-2l4-2v-2l4-2 11-11 6-2 14-1h130l4-1 1-143 2-9 4-6 15-14 13-11 15-11 13-10 13-11 7-7 8-7 7-7 3-5-5-4-7-8-15-16-14-13-7-8-23-23-5-6-8-7-15-14-1-6v-135h-137l-9-6-14-15-68-68-11-8zm-629 67 3 7 9 10 15 16 22 24 12 11 15 13 16 15 13 12 13 11 9 6 16 9 17 14 22 22 8 7 12 11 11 9 12 12 8 10 12 9 5-2 12-11 62-62 4-9 2-12 1-21v-71l-2-10-18-4-19-3-52-5-55-3-72-2-26-1-26-3-37-7-14-2zm1242 1-24 4-16 4-18 2-40 2-131 5-21 3-57 6-7 1-1 1-1 32v40l1 29 2 12 6 10 9 10 7 8 53 53 7 5 4-1 12-11 7-8 8-7 16-15 15-14 8-7 13-12 8-7 13-11 21-14 20-16 9-8 11-9 28-22 14-12 11-9 8-8 11-16 6-11 1-7-2-2zm-999 315-7 4-12 11-11 9-5 4v2l-4 2-13 12-13 10-10 9-12 9-9 8-10 8-17 16-8 7-14 13-8 7-13 12-13 11-16 13-7 7-8 14-6 3-12 4-11 7-4 4v2l10 3 14 1 49-2 11-2 8-5 16 1h20l8-1h35l14-4 46-2 95-2 2-1 1-5 2-36 1-28v-32l-2-9-7-13-8-10-7-7-2-3h-2l-2-4-13-13-8-7-11-11-11-9-8-6zm766 0-10 7-14 13-8 7-12 13-16 16-7 8-10 11-3 5-2 16-1 20v70l1 9 129 3 17 1 9 1v2l6 1h13l54 2 13 1 4 2 21 2 18 1h46l-2-5-9-10-8-8-8-7-17-16-11-8-21-16-10-8-14-12-17-16-10-10-8-7-17-16-16-13-13-11-11-9-16-13-17-14-13-10-4-2zm-243 242-6 3-9 10-8 7-19 19-7 8-29 29-7 8-10 10 1 5 11 12 16 17 53 53 7 8 11 12 8 10 11 13 8 11 12 15 15 20 7 8 13 19 14 18 11 9 13 10 8 6-4-23-1-13-1-125-1-32-1-15-6-12v-30l-2-23-3-32-2-28-2-6-40-1zm-372 1-6 1-1 62-2 49-1 5-4 2 1 6-1 24v30l1 5-3 6-3 3-3 59v87l2-1v-2l4-2 10-6 10-9 11-12 9-11 13-17 8-13 8-11 11-14 9-10 7-8 9-11 12-16 12-14 7-8 15-16 12-13 10-10 7-8 20-20 9-13-1-5-50-50-7-8-18-18-14-11-5-2z" fill="currentColor"/>
</svg>
